# xmcd
#
# Track frame offsets: 
#        150
#        17243
#        37803
#        56078
#        69248
#        89298
#        112448
#        129533
#        147293
#        162160
#        184008
#        201930
#
# Disc length: 2841 seconds
#
# Revision: 2
# Processed by: cddbd v1.5.2PL0 Copyright (c) Steve Scherf et al.
# Submitted via: ExactAudioCopyFreeDBPlugin 1.0
#
DISCID=aa0b170c
DTITLE=Lavelle White - It Haven't Been Easy
DYEAR=1996
DGENRE=Rhythm and Blues
TTITLE0=I've Never Found a Man to Love
TTITLE1=Lay Down Beside Me
TTITLE2=Don't Let My Baby Ride
TTITLE3=Wootie Boogie
TTITLE4=A Little Bit of This, A Little Bit of That
TTITLE5=Mississippi , My Home
TTITLE6=Automatic Love
TTITLE7=Black Widow Spider
TTITLE8=Oh What a Feeling
TTITLE9=It Haven't Been Easy
TTITLE10=Can't Take It (I Don't Give a Damn)
TTITLE11=Those Lonely Lonely Nights
EXTD=
EXTT0=
EXTT1=
EXTT2=
EXTT3=
EXTT4=
EXTT5=
EXTT6=
EXTT7=
EXTT8=
EXTT9=
EXTT10=
EXTT11=
PLAYORDER=
